# xmcd
#
# Track frame offsets:
#	182
#	13370
#	23977
#	37770
#	51940
#	63507
#	75612
#	83172
#	97612
#	109245
#	117527
#	127042
#	134902
#	151857
#	163467
#	177337
#	189585
#	200085
#
# Disc length: 2928 seconds
#
# Revision: 0
# Processed by: cddbd v1.4PL0 Copyright (c) Steve Scherf et al.
# Submitted via: dBpowerAMP V4.0
#
DISCID=010b6e12
DTITLE=Jacques Dutronc - L'essentiel
DYEAR=1900
DGENRE=Chanson
TTITLE0=Et moi, et moi, et moi
TTITLE1=J'ai mis un tigre dans ma guitare
TTITLE2=Les gens sont fous, les temps sont flous
TTITLE3=Les play boys
TTITLE4=On nous cache tout, on nous dit rien
TTITLE5=Les cactus
TTITLE6=J'ai tout lu, tout vu, tout bu
TTITLE7=Hippie, hippie, hourrah
TTITLE8=L'augmentation
TTITLE9=La leçon de gymnastique du professeur Dutronc
TTITLE10=Amour toujours, tendresse caresse
TTITLE11=A tout berzingue
TTITLE12=Le roi de la fête
TTITLE13=Laquelle des deux est la plus snob ?
TTITLE14=Restons français, soyons gaulois
TTITLE15=J'avais la cervelle qui faisait des vagues
TTITLE16=Le testamour
TTITLE17=Le bras mécanique
EXTD=
EXTT0=
EXTT1=
EXTT2=
EXTT3=
EXTT4=
EXTT5=
EXTT6=
EXTT7=
EXTT8=
EXTT9=
EXTT10=
EXTT11=
EXTT12=
EXTT13=
EXTT14=
EXTT15=
EXTT16=
EXTT17=
PLAYORDER=
